<?xml version="1.0" encoding="UTF-8"?>
<!DOCTYPE svg PUBLIC "-//W3C//DTD SVG 1.1//EN" "http://www.w3.org/Graphics/SVG/1.1/DTD/svg11.dtd">
<!-- Creator: CorelDRAW -->
<svg xmlns="http://www.w3.org/2000/svg" xml:space="preserve" width="100mm" height="50mm" version="1.1" style="shape-rendering:geometricPrecision; text-rendering:geometricPrecision; image-rendering:optimizeQuality; fill-rule:evenodd; clip-rule:evenodd"
viewBox="0 0 10000 5000"
 xmlns:xlink="http://www.w3.org/1999/xlink"
 xmlns:xodm="http://www.corel.com/coreldraw/odm/2003">
 <defs>
  <style type="text/css">
   <![CDATA[
    .fil4 {fill:#252525;fill-rule:nonzero}
    .fil2 {fill:white;fill-rule:nonzero}
    .fil0 {fill:url(#id0)}
    .fil1 {fill:url(#id1)}
    .fil3 {fill:url(#id2)}
   ]]>
  </style>
  <linearGradient id="id0" gradientUnits="userSpaceOnUse" x1="5048.24" y1="1974.3" x2="6970.22" y2="1974.3">
   <stop offset="0" style="stop-opacity:1; stop-color:#4C568F"/>
   <stop offset="1" style="stop-opacity:1; stop-color:#42B3E0"/>
  </linearGradient>
  <linearGradient id="id1" gradientUnits="userSpaceOnUse" x1="3022.21" y1="1974.3" x2="5560.59" y2="1974.3">
   <stop offset="0" style="stop-opacity:1; stop-color:#3A7A62"/>
   <stop offset="0.329412" style="stop-opacity:1; stop-color:#4A9362"/>
   <stop offset="1" style="stop-opacity:1; stop-color:#5AAD62"/>
  </linearGradient>
  <linearGradient id="id2" gradientUnits="userSpaceOnUse" x1="4327.82" y1="2064.17" x2="5560.59" y2="2064.17">
   <stop offset="0" style="stop-opacity:1; stop-color:#36745C"/>
   <stop offset="0.6" style="stop-opacity:1; stop-color:#449171"/>
   <stop offset="1" style="stop-opacity:1; stop-color:#52AE87"/>
  </linearGradient>
 </defs>
 <g id="Слой_x0020_1">
  <metadata id="CorelCorpID_0Corel-Layer"/>
  <g id="_1702873387664">
   <g>
    <path class="fil0" d="M5698.75 3243.46l0.58 0 0.57 0 0.57 0 0.58 0c700.92,0 1269.12,-568.21 1269.12,-1269.19l0 0c0,-700.96 -568.2,-1269.18 -1269.12,-1269.18l0 0c-190.64,0 -421.36,45.71 -652.81,142.13 369.25,221.9 616.37,664.88 616.37,1127.05l0 0 0 1268.25c11.38,0.31 22.66,0.87 34.14,0.94z"/>
    <path class="fil1" d="M4239.37 3243.46l1321.18 0 0 -0.94c-684.06,-19.32 -1232.76,-579.5 -1232.76,-1268.25l0 0c0,-462.17 247.14,-866.51 616.44,-1088.45l0 0c-190.74,-114.66 -414.06,-180.73 -652.81,-180.73l0 0 -52.05 0 0 1.34c-676.78,27.31 -1217.13,584.38 -1217.13,1267.84l0 0c0,683.53 540.35,1240.54 1217.13,1267.9l0 0 0 1.29z"/>
    <path class="fil2" d="M4944.2 885.79c-369.24,221.94 -616.36,626.29 -616.36,1088.51 0,688.74 548.68,1248.91 1232.74,1268.24l0 -1268.24c0,-462.22 -247.14,-866.57 -616.38,-1088.51z"/>
    <path class="fil3" d="M4327.79 1974.27c0,688.75 548.7,1248.93 1232.76,1268.25l0 -1268.25c0,-462.17 -247.14,-866.51 -616.32,-1088.45l0 0c-369.3,221.94 -616.44,626.28 -616.44,1088.45l0 0z"/>
   </g>
   <g>
    <path class="fil4" d="M2131.22 4030.94c0,-92.71 -59.85,-148.58 -136.6,-148.58 -77.79,0 -137.64,55.87 -137.64,148.58 0,92.73 59.85,148.59 137.64,148.59 76.75,0 136.6,-55.86 136.6,-148.59zm152.58 -268.25l0 536.52 -148.58 0 0 -61.86c-38.89,46.88 -95.76,69.81 -167.56,69.81 -151.57,0 -268.21,-107.71 -268.21,-276.22 0,-168.54 116.64,-276.25 268.21,-276.25 65.86,0 121.68,20.97 160.57,64.86l0 -56.86 155.57 0z"/>
    <path class="fil4" d="M2375.53 4249.33l51.87 -111.69c47.83,30.91 120.62,51.84 186.43,51.84 71.85,0 98.75,-18.94 98.75,-48.84 0,-87.78 -324.12,1.99 -324.12,-212.4 0,-101.75 91.76,-173.55 248.34,-173.55 73.79,0 155.57,16.98 206.41,46.89l-51.84 110.69c-52.87,-29.91 -105.69,-39.9 -154.57,-39.9 -69.8,0 -99.71,21.93 -99.71,49.88 0,91.72 324.09,2.99 324.09,214.39 0,99.71 -92.77,170.52 -253.29,170.52 -90.77,0 -182.49,-24.92 -232.36,-57.83z"/>
    <path class="fil4" d="M3279.98 4273.27c-31.9,22.91 -78.79,33.9 -125.62,33.9 -127.67,0 -200.46,-64.82 -200.46,-192.47l0 -470.68 155.58 0 0 130.61 132.61 0 0 119.69 -132.61 0 0 218.37c0,45.89 23.91,70.81 65.8,70.81 22.92,0 45.89,-6.95 63.81,-19.93l40.89 109.7z"/>
    <path class="fil4" d="M3742.7 4030.94c0,-92.71 -59.87,-148.58 -136.6,-148.58 -77.79,0 -137.66,55.87 -137.66,148.58 0,92.73 59.87,148.59 137.66,148.59 76.73,0 136.6,-55.86 136.6,-148.59zm152.58 -268.25l0 536.52 -148.6 0 0 -61.86c-38.88,46.88 -95.74,69.81 -167.54,69.81 -151.59,0 -268.23,-107.71 -268.23,-276.22 0,-168.54 116.64,-276.25 268.23,-276.25 65.84,0 121.66,20.97 160.56,64.86l0 -56.86 155.58 0z"/>
    <path class="fil4" d="M4587.33 3992.04l0 307.16 -155.58 0 0 -283.23c0,-86.74 -39.89,-126.63 -108.69,-126.63 -74.79,0 -128.67,45.88 -128.67,144.6l0 265.26 -155.53 0 0 -536.52 148.59 0 0 62.85c41.84,-45.88 104.7,-70.84 177.49,-70.84 126.66,0 222.39,73.83 222.39,237.35z"/>
    <path class="fil4" d="M5125.8 4030.94c0,-92.71 -59.85,-148.58 -136.6,-148.58 -77.79,0 -137.64,55.87 -137.64,148.58 0,92.73 59.85,148.59 137.64,148.59 76.75,0 136.6,-55.86 136.6,-148.59zm152.58 -268.25l0 536.52 -148.58 0 0 -61.86c-38.89,46.88 -95.76,69.81 -167.56,69.81 -151.57,0 -268.21,-107.71 -268.21,-276.22 0,-168.54 116.64,-276.25 268.21,-276.25 65.86,0 121.68,20.97 160.57,64.86l0 -56.86 155.57 0z"/>
    <path class="fil4" d="M6096.09 4030.94c0,-92.71 -58.82,-148.58 -136.65,-148.58 -77.74,0 -137.56,55.87 -137.56,148.58 0,92.73 59.82,148.59 137.56,148.59 77.83,0 136.65,-55.86 136.65,-148.59zm-431.82 0c0,-161.56 124.67,-276.25 295.17,-276.25 170.55,0 294.22,114.69 294.22,276.25 0,161.53 -123.67,276.22 -294.22,276.22 -170.5,0 -295.17,-114.69 -295.17,-276.22z"/>
    <path class="fil4" d="M6690.41 3754.71l0 143.59c-12.94,-1 -22.91,-2 -34.89,-2 -85.78,0 -142.64,46.88 -142.64,149.58l0 253.29 -155.58 0 0 -536.48 148.63 0 0 70.79c37.9,-51.82 101.7,-78.77 184.48,-78.77z"/>
    <path class="fil4" d="M6783.16 4121.69l0 -562.44 155.57 0 0 553.45c0,45.88 23.92,70.8 66.85,70.8 16.92,0 34.89,-4.99 43.84,-9.94l6.99 120.64c-26.92,8.98 -53.87,12.97 -80.78,12.97 -120.64,0 -192.47,-65.8 -192.47,-185.48z"/>
    <path class="fil4" d="M7235.89 4014.98l261.27 -50.87c-14.97,-54.83 -61.86,-91.73 -126.66,-91.73 -77.74,0 -131.62,51.87 -134.61,142.6zm292.18 115.68l82.74 89.77c-49.83,56.82 -124.63,86.73 -221.39,86.73 -185.48,0 -306.11,-116.68 -306.11,-276.21 0,-160.56 121.64,-276.24 287.19,-276.24 151.58,0 276.25,99.75 277.25,271.26l-396.92 76.78c22.96,52.83 72.83,79.78 142.63,79.78 56.82,0 97.71,-16.97 134.61,-51.87z"/>
    <path class="fil4" d="M8292.96 3762.69l0 536.52 -147.58 0 0 -63.85c-40.89,46.88 -100.71,71.8 -166.55,71.8 -134.61,0 -229.37,-75.75 -229.37,-241.31l0 -303.16 155.56 0 0 280.23c0,89.73 39.91,129.63 108.71,129.63 71.78,0 123.67,-45.89 123.67,-144.6l0 -265.26 155.56 0z"/>
   </g>
  </g>
 </g>
</svg>
